<svg xmlns="http://www.w3.org/2000/svg" version="1.1" xmlns:xlink="http://www.w3.org/1999/xlink" xmlns:svgjs="http://svgjs.dev/svgjs" width="1000" height="260" viewBox="0 0 1000 260"><g transform="matrix(1,0,0,1,-0.6060517165612396,-64.06739257437569)"><svg viewBox="0 0 396 103" data-background-color="#ffffff" preserveAspectRatio="xMidYMid meet" height="260" width="1000" xmlns="http://www.w3.org/2000/svg" xmlns:xlink="http://www.w3.org/1999/xlink"><g id="tight-bounds" transform="matrix(1,0,0,1,0.239996479758247,25.38054398138729)"><svg viewBox="0 0 395.52 77.43596574375857" height="77.43596574375857" width="395.52"><g><svg viewBox="0 0 517.5343060044476 101.32425361797195" height="77.43596574375857" width="395.52"><g transform="matrix(1,0,0,1,122.01430600444759,28.751754316149302)"><svg viewBox="0 0 395.52 43.82074498567334" height="43.82074498567334" width="395.52"><g id="textblocktransform"><svg viewBox="0 0 395.52 43.82074498567334" height="43.82074498567334" width="395.52" id="textblock"><g><svg viewBox="0 0 395.52 43.82074498567334" height="43.82074498567334" width="395.52"><g transform="matrix(1,0,0,1,0,0)"><svg width="395.52" viewBox="1.100000023841858 -33.900001525878906 313.42999267578125 34.80000305175781" height="43.82074498567334" data-palette-color="#336a86"><g class="undefined-text-0" data-fill-palette-color="primary" id="text-0"><path d="M13.4 0L1.1 0 1.1-0.5 2.15-0.9Q3.75-1.55 3.75-3.45L3.75-3.45 3.75-29.55Q3.75-31.55 2.15-32.1L2.15-32.1 1.1-32.5 1.1-33 14.3-33Q19.6-33 23.43-31.03 27.25-29.05 29.33-25.38 31.4-21.7 31.4-16.55L31.4-16.55Q31.4-11.3 29.15-7.6 26.9-3.9 22.88-1.95 18.85 0 13.4 0L13.4 0ZM11.25-32L11.25-1 13.4-1Q17-1 19.2-2.43 21.4-3.85 22.43-7.23 23.45-10.6 23.45-16.5L23.45-16.5Q23.45-22.4 22.43-25.78 21.4-29.15 19.25-30.58 17.1-32 13.6-32L13.6-32 11.25-32ZM39.7 0L32.8 0 32.8-0.5 34.05-0.95Q35.05-1.35 35.6-1.93 36.15-2.5 36.5-3.55L36.5-3.55 46.8-33.1 51.05-33.1 61.2-3.35Q61.6-2.25 62.1-1.68 62.6-1.1 63.65-0.7L63.65-0.7 64.25-0.5 64.25 0 51.55 0 51.55-0.5 52.3-0.75Q53.35-1.15 53.57-1.88 53.8-2.6 53.5-3.6L53.5-3.6 51.15-10.8 40.05-10.8 37.65-3.75Q37.3-2.65 37.42-2 37.55-1.35 38.6-0.95L38.6-0.95 39.7-0.5 39.7 0ZM45.8-27.35L40.4-11.8 50.85-11.8 45.8-27.35ZM88.45 0L72.7 0 72.7-0.5 74.75-1Q76.8-1.45 76.8-3.5L76.8-3.5 76.8-32 72.55-32Q70.7-32 69.9-31.03 69.1-30.05 68.2-28.35L68.2-28.35 66.4-24.85 65.9-24.85 66.15-33 95-33 95.2-24.85 94.7-24.85 92.9-28.35Q92.05-30.05 91.25-31.03 90.45-32 88.6-32L88.6-32 84.35-32 84.35-3.5Q84.35-1.45 86.4-1L86.4-1 88.45-0.5 88.45 0ZM103.54 0L96.64 0 96.64-0.5 97.89-0.95Q98.89-1.35 99.44-1.93 99.99-2.5 100.34-3.55L100.34-3.55 110.64-33.1 114.89-33.1 125.04-3.35Q125.44-2.25 125.94-1.68 126.44-1.1 127.49-0.7L127.49-0.7 128.09-0.5 128.09 0 115.39 0 115.39-0.5 116.14-0.75Q117.19-1.15 117.42-1.88 117.64-2.6 117.34-3.6L117.34-3.6 114.99-10.8 103.89-10.8 101.49-3.75Q101.14-2.65 101.27-2 101.39-1.35 102.44-0.95L102.44-0.95 103.54-0.5 103.54 0ZM109.64-27.35L104.24-11.8 114.69-11.8 109.64-27.35Z" fill="#336a86" data-fill-palette-color="primary"></path><path d="M142.04 0L129.19 0 129.19-0.5 130.19-0.9Q131.19-1.25 131.52-1.85 131.84-2.45 131.84-3.45L131.84-3.45 131.84-29.55Q131.84-30.55 131.54-31.15 131.24-31.75 130.19-32.1L130.19-32.1 129.19-32.5 129.19-33 142.04-33 142.04-32.5 141.04-32.1Q140.04-31.75 139.72-31.15 139.39-30.55 139.39-29.55L139.39-29.55 139.39-3.45Q139.39-2.45 139.72-1.88 140.04-1.3 141.04-0.9L141.04-0.9 142.04-0.5 142.04 0ZM152.49 0L144.89 0 144.89-0.5 146.54-1Q147.44-1.25 147.84-1.98 148.24-2.7 148.24-3.7L148.24-3.7 148.24-27.75Q147.69-28.95 147.36-29.55 147.04-30.15 146.64-30.58 146.24-31 145.54-31.65L145.54-31.65 144.69-32.5 144.69-33 153.54-33 170.14-10.35 170.14-29.2Q170.14-30.2 169.81-31 169.49-31.8 168.49-32.05L168.49-32.05 166.84-32.5 166.84-33 173.99-33 173.99-32.5 172.64-32.05Q171.74-31.75 171.54-31 171.34-30.25 171.34-29.25L171.34-29.25 171.34 0.15 168.54 0.15 149.44-26.1 149.44-3.7Q149.44-2.7 149.74-2 150.04-1.3 150.99-1L150.99-1 152.49-0.5 152.49 0ZM187.64 0.9L187.64 0.9Q184.89 0.9 182.04 0.23 179.18-0.45 177.29-1.55L177.29-1.55 177.54-8.35 178.04-8.35 179.58-5.1Q180.29-3.7 181.09-2.63 181.89-1.55 183.29-0.95L183.29-0.95Q184.29-0.45 185.21-0.28 186.14-0.1 187.29-0.1L187.29-0.1Q190.34-0.1 192.11-1.75 193.89-3.4 193.89-6L193.89-6Q193.89-8.45 192.68-9.83 191.49-11.2 188.84-12.5L188.84-12.5 186.79-13.4Q182.49-15.3 180.06-17.78 177.64-20.25 177.64-24.35L177.64-24.35Q177.64-27.3 179.16-29.45 180.68-31.6 183.41-32.75 186.14-33.9 189.79-33.9L189.79-33.9Q192.43-33.9 194.81-33.2 197.18-32.5 198.93-31.3L198.93-31.3 198.64-25.3 198.14-25.3 196.09-29.05Q195.24-30.8 194.39-31.53 193.53-32.25 192.43-32.55L192.43-32.55Q191.79-32.75 191.24-32.83 190.68-32.9 189.84-32.9L189.84-32.9Q187.29-32.9 185.54-31.43 183.79-29.95 183.79-27.45L183.79-27.45Q183.79-24.9 185.14-23.38 186.49-21.85 189.09-20.65L189.09-20.65 191.39-19.65Q196.18-17.55 198.28-15.18 200.39-12.8 200.39-9.05L200.39-9.05Q200.39-4.65 197.06-1.88 193.73 0.9 187.64 0.9ZM215.78 0L202.93 0 202.93-0.5 203.93-0.9Q204.93-1.25 205.26-1.85 205.58-2.45 205.58-3.45L205.58-3.45 205.58-29.55Q205.58-30.55 205.28-31.15 204.98-31.75 203.93-32.1L203.93-32.1 202.93-32.5 202.93-33 215.78-33 215.78-32.5 214.78-32.1Q213.78-31.75 213.46-31.15 213.13-30.55 213.13-29.55L213.13-29.55 213.13-3.45Q213.13-2.45 213.46-1.88 213.78-1.3 214.78-0.9L214.78-0.9 215.78-0.5 215.78 0ZM235.08 0.9L235.08 0.9Q229.98 0.9 226.11-1.23 222.23-3.35 220.06-7.28 217.88-11.2 217.88-16.55L217.88-16.55Q217.88-21.75 220.03-25.65 222.18-29.55 226.26-31.73 230.33-33.9 236.13-33.9L236.13-33.9Q238.78-33.9 241.06-33.3 243.33-32.7 245.38-31.55L245.38-31.55 245.58-24.55 245.08-24.55 242.28-29.75Q241.63-31 241.08-31.55 240.53-32.1 239.68-32.4L239.68-32.4Q238.88-32.65 238.21-32.77 237.53-32.9 236.43-32.9L236.43-32.9Q233.33-32.9 230.96-31.25 228.58-29.6 227.28-26 225.98-22.4 225.98-16.55L225.98-16.55Q225.98-10.75 227.21-7.1 228.43-3.45 230.68-1.78 232.93-0.1 235.88-0.1L235.88-0.1Q236.33-0.1 236.76-0.18 237.18-0.25 237.58-0.35L237.58-0.35Q238.53-0.5 238.83-1.15 239.13-1.8 239.13-2.7L239.13-2.7 239.13-12.6Q239.13-14.55 237.13-15L237.13-15 234.83-15.6 234.83-16.1 248.93-16.1 248.93-15.6 248.23-15.4Q246.33-14.8 246.33-12.9L246.33-12.9 246.33-2.05Q243.73-0.6 241.06 0.15 238.38 0.9 235.08 0.9ZM263.48 0L250.78 0 250.78-0.5 251.78-0.9Q252.78-1.25 253.1-1.85 253.43-2.45 253.43-3.4L253.43-3.4 253.43-29.55Q253.43-30.55 253.1-31.15 252.78-31.75 251.78-32.1L251.78-32.1 250.78-32.5 250.78-33 263.48-33 263.48-32.5 262.63-32.15Q261.68-31.8 261.33-31.23 260.98-30.65 260.98-29.65L260.98-29.65 260.98-17.5 272.93-17.5 272.93-29.65Q272.93-30.65 272.6-31.23 272.28-31.8 271.28-32.15L271.28-32.15 270.38-32.5 270.38-33 283.13-33 283.13-32.5 282.13-32.1Q281.18-31.75 280.83-31.15 280.48-30.55 280.48-29.55L280.48-29.55 280.48-3.4Q280.48-2.45 280.83-1.85 281.18-1.25 282.13-0.9L282.13-0.9 283.13-0.5 283.13 0 270.38 0 270.38-0.5 271.28-0.8Q272.28-1.2 272.6-1.78 272.93-2.35 272.93-3.35L272.93-3.35 272.93-16.5 260.98-16.5 260.98-3.35Q260.98-1.5 262.63-0.8L262.63-0.8 263.48-0.5 263.48 0ZM307.78 0L292.03 0 292.03-0.5 294.08-1Q296.13-1.45 296.13-3.5L296.13-3.5 296.13-32 291.88-32Q290.03-32 289.23-31.03 288.43-30.05 287.53-28.35L287.53-28.35 285.73-24.85 285.23-24.85 285.48-33 314.33-33 314.53-24.85 314.03-24.85 312.23-28.35Q311.38-30.05 310.58-31.03 309.78-32 307.93-32L307.93-32 303.68-32 303.68-3.5Q303.68-1.45 305.73-1L305.73-1 307.78-0.5 307.78 0Z" fill="#8eaec4" data-fill-palette-color="secondary"></path></g></svg></g></svg></g></svg></g></svg></g><g><svg viewBox="0 0 101.32425361797195 101.32425361797195" height="101.32425361797195" width="101.32425361797195"><g><svg></svg></g><g id="icon-0"><svg viewBox="0 0 101.32425361797195 101.32425361797195" height="101.32425361797195" width="101.32425361797195"><g><path d="M0 50.662c0-27.98 22.682-50.662 50.662-50.662 27.98 0 50.662 22.682 50.662 50.662 0 27.98-22.682 50.662-50.662 50.662-27.98 0-50.662-22.682-50.662-50.662zM50.662 97.372c25.797 0 46.71-20.913 46.71-46.71 0-25.797-20.913-46.71-46.71-46.71-25.797 0-46.71 20.913-46.71 46.71 0 25.797 20.913 46.71 46.71 46.71z" data-fill-palette-color="accent" fill="#283132" stroke="transparent"></path></g><g transform="matrix(1,0,0,1,26.27489158455785,26.27489158455785)"><svg viewBox="0 0 48.77447044885625 48.77447044885625" height="48.77447044885625" width="48.77447044885625"><g><svg xmlns="http://www.w3.org/2000/svg" viewBox="0 0 256 256" x="0" y="0" height="48.77447044885625" width="48.77447044885625" class="icon-s-0" data-fill-palette-color="accent" id="s-0"><g fill="#283132" data-fill-palette-color="accent"><path d="M150.575 196.433a37 37 0 1 0-41.168-0.013 58.1 58.1 0 0 0-33.5 32.729l9.27 3.752a48.15 48.15 0 0 1 44.8-30.2h0.045a48.268 48.268 0 0 1 44.514 29.52l9.21-3.9A58.245 58.245 0 0 0 150.575 196.433ZM103 165.7a27 27 0 1 1 27.022 27h-0.045A27.031 27.031 0 0 1 103 165.7ZM59.026 213.024l-6.455 7.637A116.842 116.842 0 0 1 45.305 48.592l7.071 7.072a106.842 106.842 0 0 0 6.65 157.36ZM245 131.286a116.845 116.845 0 0 1-41.578 89.382l-6.455-7.639A106.844 106.844 0 0 0 202.954 55l7.008-7.133A116.119 116.119 0 0 1 245 131.286ZM74.488 191.149L67.819 198.6a90.208 90.208 0 0 1-3.7-131.125l7.075 7.067a80.207 80.207 0 0 0 3.3 116.606Zm143.845-59.863a90.464 90.464 0 0 1-30.178 67.338l-6.666-7.455a80.206 80.206 0 0 0 3.222-116.723l7.064-7.079A89.717 89.717 0 0 1 218.333 131.286ZM180 144.594a53.646 53.646 0 0 0-13.975-51.142l7.088-7.054a63.641 63.641 0 0 1 16.574 60.676ZM90.271 93.158a53.632 53.632 0 0 0-13.55 53.977L67.169 150.1A63.632 63.632 0 0 1 83.237 86.051ZM128 94.289a37 37 0 0 1 30.67 16.319l-8.284 5.6a26.98 26.98 0 0 0-44.964 0.288L97.068 111A36.937 36.937 0 0 1 128 94.289Zm1.886-22.167a69.084 69.084 0 0 0 51.288-22.993l3-3.341-3-3.341a68.7 68.7 0 0 0-102.576 0l-3 3.341 3 3.341A69.084 69.084 0 0 0 129.886 72.122ZM129.843 29.5A16.284 16.284 0 1 1 113.56 45.788 16.3 16.3 0 0 1 129.843 29.5Zm23.732 27.572a26.241 26.241 0 0 0 0-22.576A59.417 59.417 0 0 1 170.49 45.788 59.417 59.417 0 0 1 153.575 57.076Zm-47.484-22.53a26.232 26.232 0 0 0 0 22.484A59.41 59.41 0 0 1 89.283 45.788 59.41 59.41 0 0 1 106.091 34.546Z" fill="#283132" data-fill-palette-color="accent"></path></g></svg></g></svg></g></svg></g></svg></g></svg></g><defs></defs></svg><rect width="395.52" height="77.43596574375857" fill="none" stroke="none" visibility="hidden"></rect></g></svg></g></svg>